{"title":"The Hunger Games ITA ENG AC3 BDRip 1080p X265 ZMachine","uid":11664707,"size":7763098467,"categoryP":"video","categoryS":"hd___movies","magnet":"?xt=urn:btih:1f0fcfcf199bbfc17465d0e2aae599d5baa1ae7b&amp;dn=The+Hunger+Games+ITA+ENG+AC3+BDRip+1080p+X265+ZMachine&amp;tr=udp%3A%2F%2Ftracker.openbittorrent.com%3A80&amp;tr=udp%3A%2F%2Fopen.demonii.com%3A1337&amp;tr=udp%3A%2F%2Ftracker.coppersurfer.tk%3A6969&amp;tr=udp%3A%2F%2Fexodus.desync.com%3A6969","seeders":19,"leechers":6,"uploader":"ZMachTNT","files":-1,"time":1418037705,"description":"The Hunger Games (2013) - ZMachine\n\n:: Screenshots ::\n &lt;a href=&quot;\nhttp://i.imgur.com/gVluuAtl.png&quot; rel=&quot;nofollow&quot; target=&quot;_NEW&quot;&gt;\nhttp://i.imgur.com/gVluuAtl.png&lt;/a&gt; &lt;a href=&quot;\nhttp://i.imgur.com/YJyrCnhl.png&quot; rel=&quot;nofollow&quot; target=&quot;_NEW&quot;&gt;\nhttp://i.imgur.com/YJyrCnhl.png&lt;/a&gt; &lt;a href=&quot;\nhttp://i.imgur.com/Ad7ZVdWl.png&quot; rel=&quot;nofollow&quot; target=&quot;_NEW&quot;&gt;\nhttp://i.imgur.com/Ad7ZVdWl.png&lt;/a&gt; &lt;a href=&quot;\nhttp://i.imgur.com/0fyAu7Cl.png&quot; rel=&quot;nofollow&quot; target=&quot;_NEW&quot;&gt;\nhttp://i.imgur.com/0fyAu7Cl.png&lt;/a&gt; &lt;a href=&quot;\nhttp://i.imgur.com/lL5xKK2l.png&quot; rel=&quot;nofollow&quot; target=&quot;_NEW&quot;&gt;\nhttp://i.imgur.com/lL5xKK2l.png&lt;/a&gt; &lt;a href=&quot;\nhttp://i.imgur.com/vKPiU1hl.png&quot; rel=&quot;nofollow&quot; target=&quot;_NEW&quot;&gt;\nhttp://i.imgur.com/vKPiU1hl.png&lt;/a&gt;\n\n:: Mediainfo ::\n\nGeneral\nUnique ID                                : 199332435556337320957592719776898778796 (0x95F607D8D89A04DC8CAB3CF9C33A86AC)\nComplete name                            : Z:Backup TorrentsThe.Hunger.Games.ITA.ENG.AC3.BDRip.1080p.X265_ZMachine.mkv\nFormat                                   : Matroska\nFormat version                           : Version 4 / Version 2\nFile size                                : 7.23 GiB\nDuration                                 : 2h 22mn\nOverall bit rate                         : 7 261 Kbps\nMovie name                               : The Hunger Games - ZMachine\nEncoded date                             : UTC 2014-11-27 16:58:39\nWriting application                      : mkvmerge v7.2.0 ('On Every Street') 32bit built on Sep 13 2014 15:42:11\nWriting library                          : libebml v1.3.0 + libmatroska v1.4.1\n\nVideo\nID                                       : 1\nFormat                                   : HEVC\nFormat/Info                              : High Efficiency Video Coding\nCodec ID                                 : V_MPEGH/ISO/HEVC\nDuration                                 : 2h 22mn\nBit rate                                 : 5 836 Kbps\nWidth                                    : 1 920 pixels\nHeight                                   : 800 pixels\nDisplay aspect ratio                     : 2.40:1\nFrame rate mode                          : Constant\nFrame rate                               : 23.976 fps\nBits/(Pixel*Frame)                       : 0.158\nStream size                              : 5.81 GiB (80%)\nTitle                                    : Video H.265 (Encoded by ZMachine)\nDefault                                  : Yes\nForced                                   : Yes\n\nAudio #1\nID                                       : 2\nFormat                                   : AC-3\nFormat/Info                              : Audio Coding 3\nMode extension                           : CM (complete main)\nFormat settings, Endianness              : Big\nCodec ID                                 : A_AC3\nDuration                                 : 2h 22mn\nBit rate mode                            : Constant\nBit rate                                 : 640 Kbps\nChannel(s)                               : 6 channels\nChannel positions                        : Front: L C R, Side: L R, LFE\nSampling rate                            : 48.0 KHz\nBit depth                                : 16 bits\nCompression mode                         : Lossy\nStream size                              : 653 MiB (9%)\nTitle                                    : Audio AC3 5.1\nLanguage                                 : Italian\nDefault                                  : Yes\nForced                                   : No\n\nAudio #2\nID                                       : 3\nFormat                                   : AC-3\nFormat/Info                              : Audio Coding 3\nMode extension                           : CM (complete main)\nFormat settings, Endianness              : Big\nCodec ID                                 : A_AC3\nDuration                                 : 2h 22mn\nBit rate mode                            : Constant\nBit rate                                 : 640 Kbps\nChannel(s)                               : 6 channels\nChannel positions                        : Front: L C R, Side: L R, LFE\nSampling rate                            : 48.0 KHz\nBit depth                                : 16 bits\nCompression mode                         : Lossy\nStream size                              : 653 MiB (9%)\nTitle                                    : Audio AC3 5.1\nLanguage                                 : English\nDefault                                  : No\nForced                                   : No\n\nText #1\nID                                       : 4\nFormat                                   : ASS\nCodec ID                                 : S_TEXT/ASS\nCodec ID/Info                            : Advanced Sub Station Alpha\nCompression mode                         : Lossless\nTitle                                    : Sub\nLanguage                                 : Italian\nDefault                                  : No\nForced                                   : No\n\nText #2\nID                                       : 5\nFormat                                   : ASS\nCodec ID                                 : S_TEXT/ASS\nCodec ID/Info                            : Advanced Sub Station Alpha\nCompression mode                         : Lossless\nTitle                                    : Sub\nLanguage                                 : English\nDefault                                  : No\nForced                                   : No\n\nMenu\n00:00:00.000                             : es:District 12\n00:11:24.683                             : es:Check In\n00:16:48.048                             : es:Try to Win\n00:25:38.078                             : es:Advise\n00:35:51.649                             : es:First Look\n00:44:22.576                             : es:Shoot Straight\n00:52:12.921                             : es:Girl On Fire\n01:01:11.375                             : es:Special Girl\n01:08:12.212                             : es:Countdown\n01:16:48.937                             : es:At the Edge\n01:22:39.662                             : es:Very Lethal\n01:29:21.731                             : es:Not Going to Hurt You\n01:40:43.912                             : es:Trapped\n01:50:47.765                             : es:Young Love\n02:02:46.984                             : es:Only Team\n02:09:58.957                             : es:Star Crossed Lovers","torrent":{"xt":"urn:btih:1f0fcfcf199bbfc17465d0e2aae599d5baa1ae7b","amp;dn":"The+Hunger+Games+ITA+ENG+AC3+BDRip+1080p+X265+ZMachine","amp;tr":["udp%3A%2F%2Ftracker.openbittorrent.com%3A80","udp%3A%2F%2Fopen.demonii.com%3A1337","udp%3A%2F%2Ftracker.coppersurfer.tk%3A6969","udp%3A%2F%2Fexodus.desync.com%3A6969"],"infoHash":"1f0fcfcf199bbfc17465d0e2aae599d5baa1ae7b","infoHashBuffer":{"type":"Buffer","data":[31,15,207,207,25,155,191,193,116,101,208,226,170,229,153,213,186,161,174,123]},"announce":[],"urlList":[]}}